<svg xmlns="http://www.w3.org/2000/svg" xmlns:xlink="http://www.w3.org/1999/xlink" width="50" zoomAndPan="magnify" viewBox="0 0 37.5 37.499999" height="50" preserveAspectRatio="xMidYMid meet" version="1.0"><defs><clipPath id="c341484de8"><path d="M 0 5 L 37.007812 5 L 37.007812 32 L 0 32 Z M 0 5 " clip-rule="nonzero"/></clipPath></defs><g clip-path="url(#c341484de8)"><path fill="#ffffff" d="M 32.484375 5.941406 L 4.519531 5.941406 C 2.027344 5.941406 0 7.96875 0 10.460938 L 0 26.542969 C 0 29.035156 2.027344 31.066406 4.519531 31.066406 L 32.484375 31.066406 C 34.980469 31.066406 37.007812 29.035156 37.007812 26.542969 L 37.007812 10.460938 C 37.007812 7.96875 34.980469 5.941406 32.484375 5.941406 Z M 30.277344 8.890625 L 18.503906 16.476562 L 6.730469 8.890625 Z M 32.484375 28.117188 L 4.519531 28.117188 C 3.652344 28.117188 2.949219 27.410156 2.949219 26.546875 L 2.949219 10.546875 L 17.59375 19.964844 C 17.613281 19.976562 17.632812 19.984375 17.65625 19.996094 C 17.675781 20.007812 17.695312 20.019531 17.71875 20.027344 C 17.832031 20.085938 17.949219 20.132812 18.070312 20.164062 C 18.082031 20.167969 18.09375 20.171875 18.105469 20.171875 C 18.238281 20.203125 18.371094 20.222656 18.503906 20.222656 C 18.636719 20.222656 18.769531 20.203125 18.902344 20.171875 C 18.914062 20.171875 18.925781 20.167969 18.9375 20.164062 C 19.058594 20.132812 19.175781 20.085938 19.289062 20.027344 C 19.308594 20.019531 19.332031 20.007812 19.351562 19.996094 C 19.375 19.984375 19.394531 19.976562 19.414062 19.964844 L 34.058594 10.546875 L 34.058594 26.542969 C 34.058594 27.410156 33.351562 28.117188 32.484375 28.117188 Z M 32.484375 28.117188 " fill-opacity="1" fill-rule="nonzero"/></g></svg>