<svg xmlns="http://www.w3.org/2000/svg" xmlns:xlink="http://www.w3.org/1999/xlink" width="50" zoomAndPan="magnify" viewBox="0 0 37.5 37.499999" height="50" preserveAspectRatio="xMidYMid meet" version="1.0"><defs><clipPath id="eb341f1f10"><path d="M 7.511719 7.511719 L 29.714844 7.511719 L 29.714844 29.714844 L 7.511719 29.714844 Z M 7.511719 7.511719 " clip-rule="nonzero"/></clipPath></defs><g clip-path="url(#eb341f1f10)"><path fill="#ffffff" d="M 29.484375 19.597656 L 29.484375 26.1875 C 29.484375 28.007812 28.007812 29.484375 26.1875 29.484375 L 10.808594 29.484375 C 8.992188 29.484375 7.511719 28.007812 7.511719 26.1875 L 7.511719 10.808594 C 7.511719 8.992188 8.992188 7.511719 10.808594 7.511719 L 17.398438 7.511719 C 18.007812 7.511719 18.5 8.003906 18.5 8.609375 C 18.5 9.21875 18.007812 9.710938 17.398438 9.710938 L 10.808594 9.710938 C 10.203125 9.710938 9.710938 10.203125 9.710938 10.808594 L 9.710938 26.1875 C 9.710938 26.796875 10.203125 27.289062 10.808594 27.289062 L 26.1875 27.289062 C 26.796875 27.289062 27.289062 26.796875 27.289062 26.1875 L 27.289062 19.597656 C 27.289062 18.988281 27.777344 18.5 28.386719 18.5 C 28.992188 18.5 29.484375 18.988281 29.484375 19.597656 Z M 28.386719 7.511719 L 21.792969 7.511719 C 21.1875 7.511719 20.695312 8.003906 20.695312 8.609375 C 20.695312 9.21875 21.1875 9.710938 21.792969 9.710938 L 25.734375 9.710938 L 17.722656 17.722656 C 17.292969 18.152344 17.292969 18.847656 17.722656 19.277344 C 17.9375 19.488281 18.21875 19.597656 18.5 19.597656 C 18.78125 19.597656 19.0625 19.488281 19.277344 19.277344 L 27.289062 11.261719 L 27.289062 15.203125 C 27.289062 15.808594 27.777344 16.300781 28.386719 16.300781 C 28.992188 16.300781 29.484375 15.808594 29.484375 15.203125 L 29.484375 8.609375 C 29.484375 8.003906 28.992188 7.511719 28.386719 7.511719 Z M 28.386719 7.511719 " fill-opacity="1" fill-rule="nonzero"/></g></svg>